<svg xmlns="http://www.w3.org/2000/svg" version="1.1" xmlns:xlink="http://www.w3.org/1999/xlink" xmlns:svgjs="http://svgjs.dev/svgjs" width="2000" height="520" viewBox="0 0 2000 520"><g transform="matrix(1,0,0,1,-1.2121212121212466,0.297246025924494)"><svg viewBox="0 0 396 103" data-background-color="#edbbba" preserveAspectRatio="xMidYMid meet" height="520" width="2000" xmlns="http://www.w3.org/2000/svg" xmlns:xlink="http://www.w3.org/1999/xlink"><g id="tight-bounds" transform="matrix(1,0,0,1,0.2400000000000091,-0.0588775782119626)"><svg viewBox="0 0 395.52 103.11774669363851" height="103.11774669363851" width="395.52"><g><svg viewBox="0 0 551.8390868400447 143.87237857104702" height="103.11774669363851" width="395.52"><g transform="matrix(1,0,0,1,156.31908684004478,19.883953912496374)"><svg viewBox="0 0 395.52 104.10447074605428" height="104.10447074605428" width="395.52"><g id="textblocktransform"><svg viewBox="0 0 395.52 104.10447074605428" height="104.10447074605428" width="395.52" id="textblock"><g><svg viewBox="0 0 395.52 56.1489770354906" height="56.1489770354906" width="395.52"><g transform="matrix(1,0,0,1,0,0)"><svg width="395.52" viewBox="0.30000001192092896 -32.29999923706055 263.4300231933594 37.39999771118164" height="56.1489770354906" data-palette-color="#374151"><path d="M10.85-32.05L10.65-10.6 10.75-5.9Q10.75-2.1 8.85 0.38 6.95 2.85 2.25 5.1L2.25 5.1 0.7 2.85 0.7 2.35Q4.15 0.5 5.6-1.3 7.05-3.1 7.05-5.85L7.05-5.85 7.05-10.2 6.85-28.8 0.7-28.75 0.3-29.1 0.55-32.05 10.85-32.05ZM38.2-3.5L38.45-3.1 38.15 0 20.15 0 20.4-9.65 20.15-32.05 38.2-32.05 38.4-31.65 38.1-28.55 30.55-28.7 24.2-28.6 24.1-18.1 30.1-18 35.4-18.15 35.7-17.8 35.35-14.7 29.75-14.8 24.05-14.75 24-10 24.15-3.35 30.5-3.3 38.2-3.5ZM62.3-3.5L62.55-3.1 62.25 0 44.25 0 44.5-9.65 44.25-32.05 62.3-32.05 62.5-31.65 62.2-28.55 54.65-28.7 48.3-28.6 48.2-18.1 54.2-18 59.5-18.15 59.8-17.8 59.45-14.7 53.85-14.8 48.15-14.75 48.1-10 48.25-3.35 54.6-3.3 62.3-3.5ZM86.84-32.05L87.14-31.65 86.84-28.55 81.24-28.85 77.99-28.85 77.84-10 77.99 0 73.94 0 74.24-9.65 73.99-28.85 70.74-28.85 65.04-28.55 64.79-28.95 65.09-32.05 86.84-32.05ZM113.54-32.05L124.24 0 120.14 0 119.39-3.2 117.59-8.7 110.39-8.85 103.89-8.7 101.94-3.4 101.14 0 97.14 0 108.89-32.05 113.54-32.05ZM110.74-12L116.49-12.1 111.29-27.9 110.94-27.9 105.14-12.1 110.74-12ZM142.14-32.3Q147.19-32.3 151.54-30.05L151.54-30.05 150.74-26.25 150.24-26.15Q147.84-27.65 145.81-28.3 143.79-28.95 141.54-28.95L141.54-28.95Q130.69-28.95 130.69-15.55L130.69-15.55Q130.69-9.1 133.21-6.08 135.74-3.05 141.04-3.05L141.04-3.05Q142.44-3.05 143.86-3.3 145.29-3.55 147.54-4.25L147.54-4.25 147.64-8 147.59-12.8 151.34-13.1 151.24-8.55 151.44-1.55Q148.19-0.55 145.69-0.1 143.19 0.35 140.84 0.35L140.84 0.35Q133.69 0.35 130.11-3.7 126.54-7.75 126.54-15.4L126.54-15.4Q126.54-23.65 130.59-27.98 134.64-32.3 142.14-32.3L142.14-32.3ZM177.33-3.5L177.58-3.1 177.28 0 159.28 0 159.53-9.65 159.28-32.05 177.33-32.05 177.53-31.65 177.23-28.55 169.68-28.7 163.33-28.6 163.23-18.1 169.23-18 174.53-18.15 174.83-17.8 174.48-14.7 168.88-14.8 163.18-14.75 163.13-10 163.28-3.35 169.63-3.3 177.33-3.5ZM208.23-32.15L207.98-9.4 208.08 0 203.88 0 187.28-25.65 187.03-25.65 186.98-10.55 187.03 0 183.43 0 183.58-9.5 183.48-32.05 187.63-32.05 204.18-6.4 204.53-6.4 204.48-31.85 208.23-32.15ZM228.13-32.3Q233.18-32.3 236.88-29.9L236.88-29.9 236.08-26.25 235.63-26.15Q232.28-28.95 227.93-28.95L227.93-28.95Q223.18-28.95 220.63-25.68 218.08-22.4 218.08-16.1L218.08-16.1Q218.08-9.75 220.63-6.4 223.18-3.05 227.83-3.05L227.83-3.05Q230.03-3.05 232.2-3.85 234.38-4.65 236.18-6.1L236.18-6.1 236.68-5.85 236.33-2.05Q231.98 0.35 227.48 0.35L227.48 0.35Q221.03 0.35 217.48-3.83 213.93-8 213.93-15.75L213.93-15.75Q213.93-23.7 217.63-28 221.33-32.3 228.13-32.3L228.13-32.3ZM252.68-11.6L252.63-9.35 252.73 0 248.78 0 248.98-9.35 248.93-11.45 238.78-32.05 243.08-32.05 243.73-30.25 250.73-15.85 251.08-15.85 258.78-30.15 259.53-32.05 263.73-32.05 252.68-11.6Z" opacity="1" transform="matrix(1,0,0,1,0,0)" fill="#ffffff" class="wordmark-text-0" data-fill-palette-color="primary" id="text-0"></path></svg></g></svg></g><g transform="matrix(1,0,0,1,0,69.40440293812108)"><svg viewBox="0 0 179.47671920952362 34.700067807933195" height="34.700067807933195" width="179.47671920952362"><g transform="matrix(1,0,0,1,0,0)"><svg width="179.47671920952362" viewBox="0.9500000476837158 -36.95000076293945 193.6699981689453 37.45000076293945" height="34.700067807933195" data-palette-color="#374151"><path d="M9.1 0.5L9.1 0.5Q7 0.5 5.98-0.43 4.95-1.35 4.65-3.03 4.35-4.7 4.35-6.95L4.35-6.95 4.35-21.5 0.95-21.5Q0.95-23.1 0.98-23.83 1-24.55 1.2-24.78 1.4-25 1.8-25L1.8-25 4.35-25 4.35-32.6Q4.35-33.35 4.67-33.63 5-33.9 5.88-33.95 6.75-34 8.4-34L8.4-34 8.4-25 13.5-25Q13.5-23.45 13.48-22.7 13.45-21.95 13.28-21.73 13.1-21.5 12.7-21.5L12.7-21.5 8.4-21.5 8.4-6.95Q8.4-5.9 8.47-4.98 8.55-4.05 8.93-3.53 9.3-3 10.2-3L10.2-3Q11.05-3 11.7-3.18 12.35-3.35 13.1-3.75L13.1-3.75Q13.2-3.35 13.3-2.85 13.4-2.35 13.4-1.7L13.4-1.7Q13.4-0.8 12.73-0.33 12.05 0.15 11.08 0.33 10.1 0.5 9.1 0.5ZM16.8 0L16.8 0 16.8-23.25Q18.25-24.3 20-24.9 21.75-25.5 23.6-25.5L23.6-25.5Q25.55-25.5 26.32-24.98 27.1-24.45 27.1-23.4L27.1-23.4Q27.1-23 27-22.33 26.9-21.65 26.65-21L26.65-21Q26.1-21.3 25.5-21.45 24.9-21.6 24.25-21.6L24.25-21.6Q23.4-21.6 22.52-21.33 21.65-21.05 20.95-20.5L20.95-20.5 20.9-0.8Q20.9-0.4 20.72-0.25 20.55-0.1 19.7-0.05 18.85 0 16.8 0ZM37.4 0.5L37.4 0.5Q34.4 0.5 32.8-0.4 31.2-1.3 30.57-3.15 29.95-5 29.95-7.8L29.95-7.8 29.95-24.2Q29.95-24.6 30.09-24.75 30.25-24.9 31.12-24.95 32-25 34.09-25L34.09-25 34.09-7.45Q34.09-5.85 34.37-4.88 34.65-3.9 35.37-3.48 36.09-3.05 37.45-3.05L37.45-3.05Q38.15-3.05 39.09-3.25 40.05-3.45 40.84-3.95L40.84-3.95 40.84-24.2Q40.84-24.6 41.02-24.75 41.2-24.9 42.02-24.95 42.84-25 44.89-25L44.89-25 44.89-1.3Q43.45-0.5 41.45 0 39.45 0.5 37.4 0.5ZM54.74 0.5L54.74 0.5Q52.09 0.5 50.37-0.13 48.64-0.75 48.64-2.05L48.64-2.05Q48.64-2.5 48.79-3.13 48.94-3.75 49.34-4.4L49.34-4.4Q50.44-3.75 51.67-3.45 52.89-3.15 54.34-3.15L54.34-3.15Q56.24-3.15 57.32-3.93 58.39-4.7 58.39-6.25L58.39-6.25Q58.39-7.25 57.97-8.2 57.54-9.15 56.39-10.15L56.39-10.15 51.54-14.3Q49.84-15.7 49.27-17.03 48.69-18.35 48.69-19.6L48.69-19.6Q48.69-21.35 49.57-22.68 50.44-24 52.27-24.75 54.09-25.5 56.84-25.5L56.84-25.5Q59.44-25.5 60.77-25 62.09-24.5 62.62-23.88 63.14-23.25 63.14-22.7L63.14-22.7Q63.14-21.65 62.24-20.65L62.24-20.65Q61.14-21.35 59.94-21.65 58.74-21.95 57.34-21.95L57.34-21.95Q55.54-21.95 54.47-21.33 53.39-20.7 53.39-19.55L53.39-19.55Q53.39-18.9 53.77-18.2 54.14-17.5 55.39-16.45L55.39-16.45 60.04-12.7Q61.69-11.15 62.34-9.75 62.99-8.35 62.99-6.45L62.99-6.45Q62.99-3.15 60.79-1.33 58.59 0.5 54.74 0.5ZM73.49 0.5L73.49 0.5Q71.39 0.5 70.37-0.43 69.34-1.35 69.04-3.03 68.74-4.7 68.74-6.95L68.74-6.95 68.74-21.5 65.34-21.5Q65.34-23.1 65.37-23.83 65.39-24.55 65.59-24.78 65.79-25 66.19-25L66.19-25 68.74-25 68.74-32.6Q68.74-33.35 69.07-33.63 69.39-33.9 70.27-33.95 71.14-34 72.79-34L72.79-34 72.79-25 77.89-25Q77.89-23.45 77.87-22.7 77.84-21.95 77.67-21.73 77.49-21.5 77.09-21.5L77.09-21.5 72.79-21.5 72.79-6.95Q72.79-5.9 72.87-4.98 72.94-4.05 73.32-3.53 73.69-3 74.59-3L74.59-3Q75.44-3 76.09-3.18 76.74-3.35 77.49-3.75L77.49-3.75Q77.59-3.35 77.69-2.85 77.79-2.35 77.79-1.7L77.79-1.7Q77.79-0.8 77.12-0.33 76.44 0.15 75.47 0.33 74.49 0.5 73.49 0.5ZM94.14 0L90.89 0 90.89-21.55 87.44-21.55Q87.44-23.2 87.49-23.9 87.54-24.6 87.76-24.8 87.99-25 88.49-25L88.49-25 90.89-25 90.89-28.05Q90.89-30.95 91.66-32.7 92.44-34.45 93.69-35.38 94.94-36.3 96.41-36.63 97.89-36.95 99.29-36.95L99.29-36.95Q101.59-36.95 102.76-36.4 103.94-35.85 103.94-34.9L103.94-34.9Q103.94-34.4 103.81-33.8 103.69-33.2 103.49-32.65L103.49-32.65Q102.59-33.05 101.69-33.15 100.79-33.25 99.94-33.25L99.94-33.25Q98.94-33.25 98.06-33.1 97.19-32.95 96.46-32.43 95.74-31.9 95.34-30.95 94.94-30 94.94-28.35L94.94-28.35 94.94-25 99.44-25Q99.44-23.4 99.39-22.68 99.34-21.95 99.16-21.75 98.99-21.55 98.59-21.55L98.59-21.55 94.94-21.55 94.94-0.8Q94.94-0.75 94.81-0.38 94.69 0 94.14 0L94.14 0ZM107.98 0.5L107.98 0.5Q106.08 0.5 104.61 0.03 103.13-0.45 102.13-1.8 101.13-3.15 100.63-5.73 100.13-8.3 100.13-12.5L100.13-12.5Q100.13-19.35 102.33-22.43 104.53-25.5 108.43-25.5L108.43-25.5Q111.08-25.5 112.81-24.4 114.53-23.3 115.38-20.5 116.23-17.7 116.23-12.65L116.23-12.65Q116.23-5.65 114.13-2.58 112.03 0.5 107.98 0.5ZM108.08-2.95L108.08-2.95Q109.18-2.95 110.01-3.73 110.83-4.5 111.33-6.6 111.83-8.7 111.83-12.6L111.83-12.6Q111.83-16.6 111.43-18.63 111.03-20.65 110.28-21.35 109.53-22.05 108.28-22.05L108.28-22.05Q107.18-22.05 106.33-21.28 105.48-20.5 105.01-18.4 104.53-16.3 104.53-12.4L104.53-12.4Q104.53-9.35 104.78-7.45 105.03-5.55 105.46-4.58 105.88-3.6 106.58-3.28 107.28-2.95 108.08-2.95ZM119.83 0L119.83 0 119.83-23.25Q121.28-24.3 123.03-24.9 124.78-25.5 126.63-25.5L126.63-25.5Q128.58-25.5 129.36-24.98 130.13-24.45 130.13-23.4L130.13-23.4Q130.13-23 130.03-22.33 129.93-21.65 129.68-21L129.68-21Q129.13-21.3 128.53-21.45 127.93-21.6 127.28-21.6L127.28-21.6Q126.43-21.6 125.56-21.33 124.68-21.05 123.98-20.5L123.98-20.5 123.93-0.8Q123.93-0.4 123.76-0.25 123.58-0.1 122.73-0.05 121.88 0 119.83 0ZM139.18 0.5L139.18 0.5Q137.48 0.5 136 0.03 134.53-0.45 133.45-1.7 132.38-2.95 131.8-5.25 131.23-7.55 131.23-11.2L131.23-11.2Q131.23-15.9 131.98-18.75 132.73-21.6 133.98-23.05 135.23-24.5 136.83-25 138.43-25.5 140.08-25.5L140.08-25.5Q143.23-25.5 144.83-23.5 146.43-21.5 146.43-17.45L146.43-17.45Q146.43-15.8 146.3-14.05 146.18-12.3 145.83-10.95L145.83-10.95Q144.13-10.6 142.03-10.45 139.93-10.3 138.03-10.23 136.13-10.15 134.9-10.15 133.68-10.15 133.68-10.15L133.68-10.15 133.73-13.45Q133.73-13.45 134.68-13.43 135.63-13.4 137-13.43 138.38-13.45 139.8-13.58 141.23-13.7 142.23-14L142.23-14Q142.38-14.7 142.43-15.5 142.48-16.3 142.48-17L142.48-17Q142.43-19.7 141.85-20.83 141.28-21.95 139.63-21.95L139.63-21.95Q138.78-21.95 138-21.48 137.23-21 136.63-19.83 136.03-18.65 135.7-16.6 135.38-14.55 135.38-11.35L135.38-11.35Q135.38-9 135.65-7.45 135.93-5.9 136.5-5.05 137.08-4.2 137.95-3.83 138.83-3.45 140.08-3.45L140.08-3.45Q141.58-3.45 143.05-3.85 144.53-4.25 145.73-5L145.73-5Q145.98-4.4 146.05-3.63 146.13-2.85 146.13-2.25L146.13-2.25Q146.13-1.5 145.18-0.85 144.23-0.2 142.65 0.15 141.08 0.5 139.18 0.5ZM155.53 0.3L155.53 0.3Q154.78 0.3 154.4-0.4 154.03-1.1 153.73-2.15L153.73-2.15 148.63-23.75Q148.53-24.4 148.68-24.65 148.83-24.9 149.78-24.95 150.73-25 152.98-25L152.98-25 154.58-17Q154.93-15.05 155.3-12.85 155.68-10.65 155.95-8.72 156.23-6.8 156.38-5.58 156.53-4.35 156.53-4.35L156.53-4.35 156.63-4.35Q156.63-4.35 156.78-5.58 156.93-6.8 157.18-8.72 157.43-10.65 157.78-12.85 158.13-15.05 158.53-17L158.53-17 159.88-24.1Q159.98-24.55 160.15-24.73 160.33-24.9 161.2-24.95 162.08-25 164.13-25L164.13-25 158.38 0.15Q157.83 0.25 156.93 0.28 156.03 0.3 155.53 0.3ZM173.52 0.5L173.52 0.5Q171.82 0.5 170.35 0.03 168.87-0.45 167.8-1.7 166.72-2.95 166.15-5.25 165.57-7.55 165.57-11.2L165.57-11.2Q165.57-15.9 166.32-18.75 167.07-21.6 168.32-23.05 169.57-24.5 171.17-25 172.77-25.5 174.42-25.5L174.42-25.5Q177.57-25.5 179.17-23.5 180.77-21.5 180.77-17.45L180.77-17.45Q180.77-15.8 180.65-14.05 180.52-12.3 180.17-10.95L180.17-10.95Q178.47-10.6 176.37-10.45 174.27-10.3 172.37-10.23 170.47-10.15 169.25-10.15 168.02-10.15 168.02-10.15L168.02-10.15 168.07-13.45Q168.07-13.45 169.02-13.43 169.97-13.4 171.35-13.43 172.72-13.45 174.15-13.58 175.57-13.7 176.57-14L176.57-14Q176.72-14.7 176.77-15.5 176.82-16.3 176.82-17L176.82-17Q176.77-19.7 176.2-20.83 175.62-21.95 173.97-21.95L173.97-21.95Q173.12-21.95 172.35-21.48 171.57-21 170.97-19.83 170.37-18.65 170.05-16.6 169.72-14.55 169.72-11.35L169.72-11.35Q169.72-9 170-7.45 170.27-5.9 170.85-5.05 171.42-4.2 172.3-3.83 173.17-3.45 174.42-3.45L174.42-3.45Q175.92-3.45 177.4-3.85 178.87-4.25 180.07-5L180.07-5Q180.32-4.4 180.4-3.63 180.47-2.85 180.47-2.25L180.47-2.25Q180.47-1.5 179.52-0.85 178.57-0.2 177 0.15 175.42 0.5 173.52 0.5ZM184.32 0L184.32 0 184.32-23.25Q185.77-24.3 187.52-24.9 189.27-25.5 191.12-25.5L191.12-25.5Q193.07-25.5 193.85-24.98 194.62-24.45 194.62-23.4L194.62-23.4Q194.62-23 194.52-22.33 194.42-21.65 194.17-21L194.17-21Q193.62-21.3 193.02-21.45 192.42-21.6 191.77-21.6L191.77-21.6Q190.92-21.6 190.05-21.33 189.17-21.05 188.47-20.5L188.47-20.5 188.42-0.8Q188.42-0.4 188.25-0.25 188.07-0.1 187.22-0.05 186.37 0 184.32 0Z" opacity="1" transform="matrix(1,0,0,1,0,0)" fill="#ffffff" class="slogan-text-1" data-fill-palette-color="secondary" id="text-1"></path></svg></g></svg></g></svg></g></svg></g><g><svg viewBox="0 0 143.06366093741428 143.87237857104702" height="143.87237857104702" width="143.06366093741428"><g><svg xmlns="http://www.w3.org/2000/svg" xmlns:xlink="http://www.w3.org/1999/xlink" version="1.1" x="0" y="0" viewBox="17.6989803314209 16.01759147644043 68.96057891845703 69.35040283203125" enable-background="new 0 0 100 100" xml:space="preserve" height="143.87237857104702" width="143.06366093741428" class="icon-icon-0" data-fill-palette-color="accent" id="icon-0"><g fill="#ffc800" data-fill-palette-color="accent"><path fill="#ffffff" d="M52.038 22.212c-6.691 0-12.842 2.313-17.738 6.155 1.02 0.036 1.986 0.264 2.866 0.661 4.247-2.88 9.366-4.566 14.872-4.566 5.946 0 11.425 1.988 15.855 5.301-0.014 0.014-0.033 0.019-0.047 0.031l-1.479 1.48c-0.211 0.211-0.33 0.497-0.33 0.795v0.32l-0.103-0.102c-0.211-0.211-0.497-0.33-0.796-0.33h-6.476c-0.286 0-0.56 0.108-0.767 0.302-0.053-0.101-0.121-0.192-0.201-0.274l-1.605-1.604c-0.211-0.21-0.497-0.329-0.796-0.329h-2.842c-0.299 0-0.585 0.119-0.796 0.33l-1.073 1.075h-1.301c-0.298 0-0.585 0.118-0.796 0.329l-2.722 2.724c-0.211 0.211-0.33 0.497-0.33 0.796s0.119 0.585 0.331 0.796l0.887 0.886h-0.103c-0.298 0-0.585 0.118-0.796 0.329l-1.856 1.855c-0.212 0.211-0.33 0.497-0.33 0.795 0 0.259 0.089 0.508 0.249 0.707h-0.685c-0.621 0-1.125 0.504-1.125 1.125v2.317c0 0.197 0.051 0.383 0.14 0.544l-0.744 0.745c-0.211 0.211-0.33 0.497-0.33 0.795v1.341l-1.337 1.34c-0.21 0.211-0.329 0.496-0.329 0.794v3.529c0 0.299 0.119 0.584 0.33 0.795l2.215 2.217c0.211 0.211 0.498 0.33 0.796 0.33h4.434v2.338c0 0.299 0.119 0.584 0.33 0.795l0.887 0.888v5.112c0 0.299 0.118 0.584 0.329 0.795l0.811 0.811v1.85c0 0.621 0.504 1.125 1.125 1.125h2.547c0.621 0 1.125-0.504 1.125-1.125v-0.346l2.336-2.334C56.882 66.243 57 65.957 57 65.658v-1.066l1.267-1.267c0.211-0.211 0.33-0.497 0.33-0.796v-4.024l2.705-2.707c0.211-0.211 0.33-0.496 0.33-0.795v-1.605c0-0.346-0.156-0.656-0.402-0.863l1.038-1.039h0.557c0.621 0 1.125-0.504 1.125-1.125V49.1h1.333l0.592 0.592v1.901c0 0.299 0.119 0.584 0.33 0.795l0.697 0.699v1.02c0 0.455 0.273 0.865 0.693 1.04 0.42 0.171 0.904 0.076 1.227-0.245l0.725-0.725c0.211-0.211 0.33-0.496 0.33-0.795v-1.406l1.685-1.686h0.255v0.781c0 0.621 0.504 1.125 1.125 1.125h0.032c0.056 0.126 0.134 0.24 0.233 0.34l2.363 2.365c0.422 0.422 1.17 0.422 1.592 0l1.186-1.188c0.057-0.056 0.088-0.129 0.131-0.195C77.215 67 65.845 77.589 52.038 77.589c-8.004 0-15.175-3.574-20.049-9.191l1.255-1.256c0.211-0.211 0.329-0.496 0.329-0.795v-1.66l2.635-2.635c0.211-0.211 0.33-0.496 0.33-0.795v-2.934c0-0.621-0.504-1.125-1.125-1.125h-2.777l-4.149-4.148c-0.211-0.211-0.497-0.329-0.796-0.329h-2.13c-0.036-0.562-0.085-1.122-0.085-1.694 0-3.82 0.826-7.446 2.284-10.732-0.56-0.809-0.972-1.723-1.185-2.717-2.131 4.019-3.35 8.592-3.35 13.449 0 7.236 2.701 13.838 7.121 18.904l0.029 0.08 0.023-0.022c5.284 6.023 13.015 9.851 21.639 9.851 15.89 0 28.815-12.926 28.815-28.812C80.854 35.138 67.928 22.212 52.038 22.212zM49.749 33.707h1.158l-1.237 1.239c-0.114 0.114-0.198 0.246-0.253 0.387-0.209-0.203-0.49-0.316-0.782-0.316-0.073 0-0.145 0.008-0.216 0.021L49.749 33.707zM78.064 47.642c-0.621 0-1.125 0.504-1.125 1.125v0.906l-0.709 0.709c-0.211 0.211-0.329 0.498-0.329 0.797 0 0.297 0.118 0.584 0.33 0.795l0.195 0.195v0.283l-0.062 0.062-1.239-1.24v-0.203c0-0.6-0.469-1.09-1.061-1.123v-0.783c0-0.621-0.504-1.125-1.125-1.125h-1.846c-0.299 0-0.584 0.119-0.795 0.33l-2.176 2.176v-1.32c0-0.298-0.119-0.584-0.33-0.795l-1.25-1.252c-0.211-0.211-0.497-0.329-0.796-0.329h-4.254l-1.058-1.06c-0.322-0.322-0.807-0.419-1.228-0.245s-0.694 0.584-0.694 1.04v1.469c0 0.298 0.119 0.584 0.33 0.795l0.686 0.686c0.211 0.211 0.496 0.33 0.795 0.33h0.391l-0.818 0.82H58.77c-0.621 0-1.125 0.504-1.125 1.125v1.588c0 0.621 0.504 1.125 1.125 1.125h0.612l-2.705 2.722c-0.211 0.211-0.33 0.497-0.33 0.796v4.023l-1.268 1.268c-0.211 0.211-0.329 0.496-0.329 0.795v1.066l-2.335 2.335c-0.135 0.135-0.232 0.302-0.285 0.481h-0.342v-1.19c0-0.299-0.119-0.585-0.33-0.796l-0.81-0.81v-5.112c0-0.299-0.118-0.584-0.329-0.795l-0.888-0.889v-2.996c0-0.621-0.504-1.125-1.125-1.125h-5.093l-1.557-1.558v-2.597l1.338-1.34c0.21-0.211 0.328-0.497 0.328-0.795v-1.34l0.891-0.891h1.816c0.404 0 0.759-0.215 0.957-0.535h0.442c0.038 0.229 0.147 0.443 0.313 0.609l1.152 1.151c0.211 0.211 0.497 0.329 0.795 0.329h1.359c0.299 0 0.586-0.118 0.797-0.33l0.406-0.406h3.622c0.621 0 1.125-0.504 1.125-1.125v-1.123c0-0.621-0.504-1.125-1.125-1.125H53.83l-1.353-1.352c-0.211-0.211-0.496-0.329-0.795-0.329h-0.361l-1.03-1.031c-0.211-0.211-0.498-0.329-0.796-0.329h-2.406c-0.26 0-0.512 0.09-0.711 0.253-0.014-0.151-0.058-0.298-0.128-0.431l0.767-0.766h4.804c0.299 0 0.585-0.119 0.796-0.33l2.111-2.114c0.439-0.439 0.439-1.151 0-1.591l-1.611-1.612c-0.211-0.211-0.496-0.329-0.795-0.329h-0.359l0.957-0.959h1.91l0.479 0.479-0.328 0.327c-0.211 0.211-0.329 0.498-0.329 0.796 0 0.299 0.118 0.585 0.329 0.796l1.035 1.034c0.438 0.438 1.149 0.44 1.59 0.001l1.527-1.527h5.543l0.668 0.669c0.211 0.212 0.496 0.33 0.795 0.33h1.025c0.621 0 1.125-0.504 1.125-1.125v-1.547l0.82-0.82h1.115c4.369 4.115 7.34 9.681 8.14 15.927H78.064zM48.539 42.991h-1.546l0.562-0.561h1.475l1.03 1.031c0.211 0.211 0.496 0.329 0.795 0.329h0.362l0.554 0.554c-0.293 0.004-0.574 0.122-0.782 0.33l-0.405 0.406h-0.427l-0.492-0.492v-0.473C49.664 43.495 49.16 42.991 48.539 42.991zM31.323 64.222v1.659l-0.741 0.741c-2.46-3.375-4.135-7.342-4.781-11.651h1.424l4.149 4.148c0.211 0.211 0.497 0.329 0.795 0.329h2.119v1.342l-2.635 2.636C31.442 63.637 31.323 63.923 31.323 64.222zM78.569 51.224l0.025-0.025c0 0.039-0.006 0.074-0.006 0.111C78.579 51.282 78.583 51.25 78.569 51.224z" data-fill-palette-color="accent"></path><g fill="#ffc800" data-fill-palette-color="accent"><path fill="#ffffff" d="M50.906 79.839c0-0.615 0.51-1.125 1.125-1.125l0 0c0.63 0 1.14 0.51 1.14 1.125l0 0c0 0.631-0.51 1.125-1.14 1.125l0 0C51.416 80.964 50.906 80.47 50.906 79.839z" data-fill-palette-color="accent"></path></g><g fill="#ffc800" data-fill-palette-color="accent"><path fill="#ffffff" d="M50.906 75.356c0-0.615 0.51-1.125 1.125-1.125l0 0c0.63 0 1.14 0.51 1.14 1.125l0 0c0 0.631-0.51 1.125-1.14 1.125l0 0C51.416 76.481 50.906 75.987 50.906 75.356z" data-fill-palette-color="accent"></path></g><g fill="#ffc800" data-fill-palette-color="accent"><path fill="#ffffff" d="M50.906 71.419c0-0.615 0.51-1.125 1.125-1.125l0 0c0.63 0 1.14 0.51 1.14 1.125l0 0c0 0.631-0.51 1.125-1.14 1.125l0 0C51.416 72.544 50.906 72.05 50.906 71.419z" data-fill-palette-color="accent"></path></g><g fill="#ffc800" data-fill-palette-color="accent"><path fill="#ffffff" d="M50.906 84.243c0-0.615 0.51-1.125 1.125-1.125l0 0c0.63 0 1.14 0.51 1.14 1.125l0 0c0 0.629-0.51 1.125-1.14 1.125l0 0C51.416 85.368 50.906 84.872 50.906 84.243z" data-fill-palette-color="accent"></path></g><path fill="#ffffff" d="M55.301 84.394c-0.089-0.615 0.346-1.186 0.96-1.262l0 0 0 0 0 0c0.615-0.074 1.185 0.346 1.261 0.961l0 0c0.089 0.615-0.346 1.186-0.961 1.275l0 0c-0.046 0-0.104 0-0.149 0l0 0C55.856 85.368 55.376 84.964 55.301 84.394z" data-fill-palette-color="accent"></path><path fill="#ffffff" d="M59.62 83.688c-0.164-0.599 0.195-1.214 0.796-1.38l0 0c0.599-0.164 1.214 0.195 1.38 0.795l0 0c0.166 0.602-0.195 1.215-0.795 1.381l0 0c-0.104 0.014-0.195 0.03-0.285 0.03l0 0C60.206 84.514 59.755 84.183 59.62 83.688z" data-fill-palette-color="accent"></path><path fill="#ffffff" d="M63.82 82.413c-0.239-0.57 0.03-1.23 0.615-1.471l0 0c0.569-0.238 1.23 0.031 1.471 0.615l0 0c0.224 0.57-0.046 1.23-0.615 1.471l0 0c-0.135 0.061-0.286 0.074-0.435 0.074l0 0C64.421 83.103 64.001 82.849 63.82 82.413z" data-fill-palette-color="accent"></path><path fill="#ffffff" d="M67.825 80.599c-0.314-0.525-0.135-1.217 0.406-1.531l0 0c0.54-0.314 1.214-0.135 1.529 0.406l0 0c0.314 0.54 0.136 1.23-0.404 1.545l0 0c-0.181 0.104-0.375 0.149-0.57 0.149l0 0C68.411 81.168 68.021 80.958 67.825 80.599z" data-fill-palette-color="accent"></path><path fill="#ffffff" d="M71.546 78.288c-0.375-0.495-0.285-1.199 0.209-1.574l0 0c0.48-0.375 1.186-0.286 1.576 0.209l0 0c0.375 0.495 0.285 1.199-0.211 1.574l0 0c-0.209 0.151-0.449 0.227-0.689 0.227l0 0C72.101 78.724 71.771 78.573 71.546 78.288z" data-fill-palette-color="accent"></path><path fill="#ffffff" d="M74.936 75.514c-0.45-0.451-0.45-1.155 0-1.591l0 0c0.435-0.449 1.14-0.449 1.591 0l0 0c0.436 0.436 0.436 1.14 0 1.591l0 0c-0.226 0.21-0.512 0.329-0.795 0.329l0 0C75.445 75.843 75.146 75.724 74.936 75.514z" data-fill-palette-color="accent"></path><path fill="#ffffff" d="M77.936 72.317c-0.495-0.39-0.585-1.094-0.21-1.59l0 0c0.375-0.48 1.08-0.584 1.575-0.194l0 0c0.495 0.375 0.585 1.079 0.21 1.575l0 0c-0.225 0.285-0.555 0.435-0.9 0.435l0 0C78.386 72.543 78.13 72.468 77.936 72.317z" data-fill-palette-color="accent"></path><path fill="#ffffff" d="M80.485 68.747c-0.54-0.299-0.721-0.99-0.404-1.529l0 0c0.315-0.54 1.006-0.721 1.545-0.405l0 0c0.525 0.3 0.721 0.99 0.405 1.53l0 0c-0.211 0.361-0.586 0.556-0.976 0.556l0 0C80.86 68.898 80.666 68.853 80.485 68.747z" data-fill-palette-color="accent"></path><path fill="#ffffff" d="M82.57 64.894c-0.585-0.24-0.854-0.9-0.614-1.471l0 0 0 0 0 0c0.239-0.57 0.9-0.84 1.47-0.615l0 0c0.569 0.24 0.839 0.9 0.615 1.471l0 0c-0.181 0.436-0.601 0.705-1.05 0.705l0 0C82.856 64.983 82.706 64.954 82.57 64.894z" data-fill-palette-color="accent"></path><path fill="#ffffff" d="M84.116 60.798c-0.602-0.166-0.96-0.779-0.796-1.38l0 0 0 0 0 0c0.165-0.601 0.78-0.96 1.38-0.796l0 0c0.601 0.151 0.946 0.767 0.795 1.365l0 0c-0.135 0.51-0.599 0.842-1.094 0.842l0 0C84.311 60.829 84.206 60.812 84.116 60.798z" data-fill-palette-color="accent"></path><path fill="#ffffff" d="M85.106 56.523c-0.615-0.075-1.051-0.646-0.96-1.26l0 0 0 0 0 0c0.075-0.615 0.645-1.05 1.26-0.976l0 0c0.615 0.09 1.05 0.645 0.96 1.26h0.014c-0.074 0.57-0.569 0.99-1.125 0.99l0 0C85.212 56.538 85.166 56.523 85.106 56.523z" data-fill-palette-color="accent"></path><path fill="#ffffff" d="M84.146 46.803L84.146 46.803 84.146 46.803c-0.076-0.614 0.358-1.185 0.974-1.26l0 0c0.615-0.09 1.171 0.345 1.26 0.96l0 0c0.076 0.615-0.358 1.186-0.974 1.26l0 0c-0.046 0.016-0.105 0.016-0.151 0.016l0 0C84.7 47.778 84.222 47.358 84.146 46.803z" data-fill-palette-color="accent"></path><path fill="#ffffff" d="M83.32 42.647c-0.164-0.6 0.194-1.214 0.796-1.38l0 0c0.6-0.165 1.215 0.196 1.379 0.796l0 0c0.166 0.6-0.194 1.215-0.795 1.38l0 0c-0.104 0.03-0.195 0.03-0.284 0.03l0 0C83.906 43.474 83.456 43.143 83.32 42.647z" data-fill-palette-color="accent"></path><path fill="#ffffff" d="M81.956 38.628L81.956 38.628 81.956 38.628c-0.24-0.569 0.045-1.23 0.614-1.47l0 0c0.569-0.24 1.23 0.045 1.471 0.614l0 0c0.24 0.57-0.03 1.23-0.615 1.471l0 0c-0.135 0.06-0.286 0.09-0.421 0.09l0 0C82.556 39.333 82.136 39.063 81.956 38.628z" data-fill-palette-color="accent"></path><path fill="#ffffff" d="M80.081 34.833c-0.316-0.54-0.119-1.215 0.42-1.53l0 0c0.525-0.315 1.215-0.135 1.53 0.405l0 0c0.315 0.54 0.12 1.23-0.405 1.529l0 0c-0.181 0.105-0.375 0.166-0.57 0.166l0 0C80.666 35.403 80.291 35.193 80.081 34.833z" data-fill-palette-color="accent"></path><path fill="#ffffff" d="M77.726 31.323c-0.375-0.495-0.285-1.2 0.21-1.59l0 0c0.495-0.375 1.2-0.285 1.575 0.21l0 0c0.375 0.495 0.285 1.199-0.21 1.574l0 0c-0.194 0.166-0.45 0.24-0.69 0.24l0 0C78.281 31.758 77.95 31.608 77.726 31.323z" data-fill-palette-color="accent"></path><path fill="#ffffff" d="M74.936 28.128L74.936 28.128 74.936 28.128c-0.435-0.435-0.435-1.154 0-1.59l0 0c0.435-0.436 1.155-0.436 1.591 0l0 0c0.436 0.436 0.436 1.155 0 1.59l0 0c-0.226 0.225-0.512 0.33-0.795 0.33l0 0C75.445 28.458 75.146 28.353 74.936 28.128z" data-fill-palette-color="accent"></path><path fill="#ffffff" d="M71.755 25.339c-0.494-0.375-0.584-1.081-0.209-1.576l0 0c0.375-0.495 1.08-0.585 1.574-0.21l0 0c0.496 0.375 0.586 1.08 0.211 1.575l0 0c-0.225 0.285-0.555 0.436-0.9 0.436l0 0C72.19 25.563 71.95 25.487 71.755 25.339z" data-fill-palette-color="accent"></path><path fill="#ffffff" d="M68.231 22.983L68.231 22.983 68.231 22.983c-0.541-0.315-0.721-1.006-0.406-1.545l0 0c0.301-0.541 0.99-0.721 1.531-0.405l0 0c0.54 0.315 0.719 0.989 0.42 1.53l0 0c-0.211 0.359-0.601 0.569-0.99 0.569l0 0C68.606 23.133 68.411 23.089 68.231 22.983z" data-fill-palette-color="accent"></path><path fill="#ffffff" d="M64.436 21.108c-0.569-0.24-0.839-0.9-0.615-1.471l0 0c0.24-0.585 0.901-0.854 1.485-0.615l0 0c0.57 0.24 0.841 0.9 0.601 1.471l0 0c-0.181 0.435-0.601 0.705-1.036 0.705l0 0C64.722 21.198 64.57 21.168 64.436 21.108z" data-fill-palette-color="accent"></path><path fill="#ffffff" d="M60.431 19.743c-0.6-0.165-0.959-0.779-0.795-1.381l0 0c0.15-0.6 0.78-0.944 1.379-0.794l0 0c0.602 0.165 0.947 0.78 0.796 1.38l0 0c-0.135 0.51-0.599 0.84-1.095 0.84l0 0C60.626 19.788 60.521 19.772 60.431 19.743z" data-fill-palette-color="accent"></path><path fill="#ffffff" d="M56.276 18.918L56.276 18.918 56.276 18.918c-0.615-0.075-1.051-0.646-0.976-1.26l0 0c0.089-0.615 0.645-1.05 1.26-0.96l0 0c0.615 0.074 1.05 0.63 0.976 1.26l0 0c-0.074 0.555-0.555 0.976-1.11 0.976l0 0C56.38 18.934 56.32 18.934 56.276 18.918z" data-fill-palette-color="accent"></path><path fill="#ffffff" d="M18.671 47.763c-0.615-0.09-1.051-0.645-0.96-1.26l0 0c0.075-0.63 0.646-1.064 1.261-0.975l0 0c0.614 0.074 1.049 0.645 0.959 1.26l0 0c-0.074 0.57-0.555 0.975-1.109 0.975l0 0C18.775 47.763 18.716 47.763 18.671 47.763z" data-fill-palette-color="accent"></path><path fill="#ffffff" d="M18.671 52.155c-0.615-0.09-1.051-0.645-0.96-1.26l0 0c0.075-0.629 0.646-1.064 1.261-0.975l0 0c0.614 0.075 1.049 0.645 0.959 1.26l0 0c-0.074 0.57-0.555 0.975-1.109 0.975l0 0C18.775 52.155 18.716 52.155 18.671 52.155z" data-fill-palette-color="accent"></path><path fill="#ffffff" d="M85.388 52.155c-0.615-0.09-1.051-0.645-0.961-1.26l0 0c0.076-0.629 0.646-1.064 1.261-0.975l0 0c0.614 0.075 1.049 0.645 0.96 1.26l0 0c-0.075 0.57-0.556 0.975-1.111 0.975l0 0C85.491 52.155 85.431 52.155 85.388 52.155z" data-fill-palette-color="accent"></path><path fill="#ffffff" d="M19.376 43.428c-0.601-0.149-0.945-0.78-0.795-1.38l0 0c0.164-0.6 0.779-0.945 1.38-0.795l0 0c0.6 0.165 0.96 0.78 0.795 1.38l0 0c-0.136 0.51-0.585 0.841-1.08 0.841l0 0C19.571 43.474 19.481 43.458 19.376 43.428z" data-fill-palette-color="accent"></path><path fill="#ffffff" d="M20.65 39.228c-0.584-0.24-0.854-0.885-0.614-1.47l0 0c0.239-0.569 0.899-0.84 1.47-0.6l0 0c0.585 0.239 0.854 0.9 0.614 1.47l0 0c-0.179 0.436-0.6 0.69-1.034 0.69l0 0C20.936 39.318 20.786 39.288 20.65 39.228z" data-fill-palette-color="accent"></path><path fill="#ffffff" d="M22.451 35.237c-0.525-0.299-0.72-0.989-0.405-1.529l0 0c0.314-0.54 1.005-0.721 1.545-0.42l0 0c0.525 0.314 0.72 1.005 0.404 1.545l0 0 0 0 0 0c-0.209 0.36-0.584 0.555-0.975 0.555l0 0C22.826 35.388 22.631 35.343 22.451 35.237z" data-fill-palette-color="accent"></path><path fill="#ffffff" d="M24.775 31.518c-0.495-0.375-0.584-1.079-0.209-1.574l0 0c0.375-0.495 1.079-0.585 1.574-0.21l0 0c0.495 0.39 0.585 1.095 0.21 1.575l0 0c-0.225 0.3-0.555 0.449-0.899 0.449l0 0C25.211 31.758 24.972 31.684 24.775 31.518z" data-fill-palette-color="accent"></path><path fill="#ffffff" d="M27.551 28.128c-0.435-0.435-0.435-1.154 0-1.59l0 0c0.435-0.436 1.155-0.436 1.59 0l0 0c0.45 0.436 0.45 1.155 0 1.59l0 0 0 0 0 0c-0.21 0.225-0.51 0.33-0.794 0.33l0 0C28.061 28.458 27.775 28.353 27.551 28.128z" data-fill-palette-color="accent"></path><path fill="#ffffff" d="M30.745 25.128c-0.375-0.495-0.284-1.2 0.211-1.575l0 0c0.495-0.375 1.199-0.285 1.574 0.21l0 0c0.375 0.48 0.286 1.201-0.209 1.576l0 0c-0.195 0.148-0.436 0.225-0.676 0.225l0 0C31.301 25.563 30.972 25.413 30.745 25.128z" data-fill-palette-color="accent"></path><path fill="#ffffff" d="M34.316 22.563c-0.315-0.525-0.136-1.215 0.405-1.53l0 0c0.539-0.315 1.229-0.136 1.544 0.405l0 0c0.301 0.539 0.12 1.229-0.419 1.545l0 0 0 0 0 0c-0.181 0.105-0.375 0.149-0.556 0.149l0 0C34.9 23.133 34.525 22.923 34.316 22.563z" data-fill-palette-color="accent"></path><path fill="#ffffff" d="M38.171 20.493c-0.24-0.57 0.045-1.23 0.615-1.471l0 0c0.57-0.239 1.229 0.03 1.47 0.615l0 0c0.239 0.57-0.03 1.23-0.615 1.471l0 0c-0.135 0.06-0.284 0.09-0.419 0.09l0 0C38.771 21.198 38.351 20.928 38.171 20.493z" data-fill-palette-color="accent"></path><path fill="#ffffff" d="M42.28 18.948c-0.164-0.6 0.195-1.215 0.796-1.38l0 0c0.6-0.15 1.215 0.194 1.38 0.794l0 0c0.15 0.602-0.195 1.216-0.795 1.381l0 0c-0.105 0.029-0.195 0.045-0.301 0.045l0 0C42.866 19.788 42.416 19.443 42.28 18.948z" data-fill-palette-color="accent"></path><path fill="#ffffff" d="M46.556 17.958c-0.09-0.63 0.345-1.186 0.96-1.274l0 0c0.615-0.075 1.186 0.359 1.26 0.975l0 0c0.091 0.614-0.345 1.185-0.959 1.26l0 0c-0.061 0.016-0.105 0.016-0.15 0.016l0 0C47.11 18.934 46.631 18.513 46.556 17.958z" data-fill-palette-color="accent"></path><path fill="#ffffff" d="M50.931 17.3c-0.089-0.63 0.346-1.185 0.961-1.274l0 0c0.615-0.075 1.186 0.36 1.26 0.976l0 0c0.092 0.614-0.346 1.185-0.959 1.26l0 0c-0.061 0.015-0.105 0.015-0.15 0.015l0 0C51.487 18.275 51.007 17.855 50.931 17.3z" data-fill-palette-color="accent"></path><path fill="#ffffff" d="M26.965 51.033c0-0.63 0.51-1.125 1.125-1.125l0 0c0.63 0 1.125 0.495 1.125 1.125l0 0c0 0.615-0.495 1.125-1.125 1.125l0 0C27.475 52.158 26.965 51.648 26.965 51.033z" data-fill-palette-color="accent"></path><path fill="#ffffff" d="M22.101 51.033c0-0.63 0.51-1.125 1.125-1.125l0 0c0.629 0 1.125 0.495 1.125 1.125l0 0c0 0.615-0.496 1.125-1.125 1.125l0 0C22.61 52.158 22.101 51.648 22.101 51.033z" data-fill-palette-color="accent"></path><path fill="#ffffff" d="M41.825 39.954c0.006-0.008 0.005-0.019 0.01-0.028 0.619-1.216 0.957-2.552 0.957-3.948 0-4.832-3.931-8.763-8.762-8.763s-8.761 3.931-8.761 8.763c0 1.381 0.356 2.711 0.966 3.921 0.01 0.019 0.009 0.038 0.02 0.056l0.064 0.112c0.135 0.253 0.27 0.503 0.428 0.742l6.099 10.562c0.208 0.36 0.587 0.562 0.975 0.562 0.075 0 0.146-0.044 0.22-0.059 0.074 0.015 0.145 0.059 0.22 0.059 0.388 0 0.767-0.202 0.975-0.562l6.293-10.899c0.099-0.163 0.198-0.325 0.285-0.493L41.825 39.954zM34.03 29.465c3.592 0 6.512 2.922 6.512 6.513 0 1.035-0.25 2.024-0.708 2.927l-0.279 0.485c-0.129 0.207-0.252 0.417-0.405 0.611-1.244 1.58-3.109 2.486-5.119 2.486-1.83 0-3.586-0.777-4.818-2.131-0.206-0.227-0.377-0.478-0.548-0.727l-0.433-0.75c-0.449-0.896-0.712-1.88-0.712-2.902C27.52 32.387 30.44 29.465 34.03 29.465zM34.04 48.94l-2.667-4.619c0.853 0.271 1.748 0.416 2.657 0.416 0.927 0 1.828-0.153 2.684-0.427L34.04 48.94z" data-fill-palette-color="accent"></path><g fill="#ffc800" data-fill-palette-color="accent"><g fill="#ffc800" data-fill-palette-color="accent"><path fill="#ffffff" d="M34.03 40.122c-2.285 0-4.146-1.86-4.146-4.146 0-2.285 1.86-4.145 4.146-4.145 2.286 0 4.146 1.859 4.146 4.145C38.177 38.262 36.316 40.122 34.03 40.122zM34.03 34.081c-1.045 0-1.896 0.85-1.896 1.895 0 1.046 0.851 1.896 1.896 1.896 1.046 0 1.896-0.851 1.896-1.896C35.927 34.931 35.076 34.081 34.03 34.081z" data-fill-palette-color="accent"></path></g></g><g fill="#ffc800" data-fill-palette-color="accent"><path fill="#ffffff" d="M58.288 66.726c-0.146 0-0.292-0.027-0.432-0.084-0.42-0.175-0.693-0.585-0.693-1.041V62.88c0-0.299 0.118-0.585 0.329-0.796l1.317-1.317c0.273-0.273 0.67-0.383 1.039-0.303l0.709 0.158c0.515 0.115 0.881 0.571 0.881 1.099v1.853c0 0.299-0.119 0.585-0.33 0.796l-2.025 2.027C58.868 66.612 58.581 66.726 58.288 66.726z" data-fill-palette-color="accent"></path></g></g></svg></g></svg></g></svg></g><defs></defs></svg><rect width="395.52" height="103.11774669363851" fill="none" stroke="none" visibility="hidden"></rect></g></svg></g></svg>